<?xml version="1.0" encoding="utf-8" standalone="no"?>
<!DOCTYPE svg PUBLIC "-//W3C//DTD SVG 1.1//EN"
  "http://www.w3.org/Graphics/SVG/1.1/DTD/svg11.dtd">
<!-- Created with matplotlib (http://matplotlib.org/) -->
<svg height="637.889156pt" version="1.1" viewBox="0 0 1158.726923 637.889156" width="1158.726923pt" xmlns="http://www.w3.org/2000/svg" xmlns:xlink="http://www.w3.org/1999/xlink">
 <defs>
  <style type="text/css">
*{stroke-linecap:butt;stroke-linejoin:round;}
  </style>
 </defs>
 <g id="figure_1">
  <g id="patch_1">
   <path d="M 0 637.889156 
L 1158.726923 637.889156 
L 1158.726923 0 
L 0 0 
z
" style="fill:#ffffff;"/>
  </g>
  <g id="axes_1">
   <g id="patch_2">
    <path d="M 160.2 476.83125 
L 525.046154 476.83125 
L 525.046154 96.31125 
L 160.2 96.31125 
z
" style="fill:#ffffff;"/>
   </g>
   <g id="patch_3">
    <path clip-path="url(#pd5f248d377)" d="M 176.783916 476.83125 
L 324.196503 476.83125 
L 324.196503 453.356362 
L 176.783916 453.356362 
z
" style="fill:url(#h3adaf0db31);"/>
   </g>
   <g id="patch_4">
    <path clip-path="url(#pd5f248d377)" d="M 176.783916 453.356362 
L 324.196503 453.356362 
L 324.196503 448.718818 
L 176.783916 448.718818 
z
" style="fill:url(#hbb0aafb2f7);"/>
   </g>
   <g id="patch_5">
    <path clip-path="url(#pd5f248d377)" d="M 176.783916 448.718818 
L 324.196503 448.718818 
L 324.196503 441.8691 
L 176.783916 441.8691 
z
" style="fill:url(#h928402f0d9);"/>
   </g>
   <g id="patch_6">
    <path clip-path="url(#pd5f248d377)" d="M 176.783916 441.8691 
L 324.196503 441.8691 
L 324.196503 439.532593 
L 176.783916 439.532593 
z
" style="fill:url(#h767520488a);"/>
   </g>
   <g id="patch_7">
    <path clip-path="url(#pd5f248d377)" d="M 176.783916 439.532593 
L 324.196503 439.532593 
L 324.196503 259.181212 
L 176.783916 259.181212 
z
" style="fill:#c5e1a5;"/>
   </g>
   <g id="patch_8">
    <path clip-path="url(#pd5f248d377)" d="M 176.783916 259.181212 
L 324.196503 259.181212 
L 324.196503 199.943534 
L 176.783916 199.943534 
z
" style="fill:#90caf9;"/>
   </g>
   <g id="patch_9">
    <path clip-path="url(#pd5f248d377)" d="M 176.783916 199.943534 
L 324.196503 199.943534 
L 324.196503 109.206906 
L 176.783916 109.206906 
z
" style="fill:#bcaaa4;"/>
   </g>
   <g id="patch_10">
    <path clip-path="url(#pd5f248d377)" d="M 176.783916 109.206906 
L 324.196503 109.206906 
L 324.196503 109.206906 
L 176.783916 109.206906 
z
" style="fill:#bdbdbd;"/>
   </g>
   <g id="patch_11">
    <path clip-path="url(#pd5f248d377)" d="M 361.04965 476.83125 
L 508.462238 476.83125 
L 508.462238 442.740357 
L 361.04965 442.740357 
z
" style="fill:url(#h3adaf0db31);"/>
   </g>
   <g id="patch_12">
    <path clip-path="url(#pd5f248d377)" d="M 361.04965 442.740357 
L 508.462238 442.740357 
L 508.462238 441.479683 
L 361.04965 441.479683 
z
" style="fill:url(#hbb0aafb2f7);"/>
   </g>
   <g id="patch_13">
    <path clip-path="url(#pd5f248d377)" d="M 361.04965 441.479683 
L 508.462238 441.479683 
L 508.462238 441.479683 
L 361.04965 441.479683 
z
" style="fill:url(#h928402f0d9);"/>
   </g>
   <g id="patch_14">
    <path clip-path="url(#pd5f248d377)" d="M 361.04965 441.479683 
L 508.462238 441.479683 
L 508.462238 439.143175 
L 361.04965 439.143175 
z
" style="fill:url(#h767520488a);"/>
   </g>
   <g id="patch_15">
    <path clip-path="url(#pd5f248d377)" d="M 361.04965 439.143175 
L 508.462238 439.143175 
L 508.462238 142.855705 
L 361.04965 142.855705 
z
" style="fill:#c5e1a5;"/>
   </g>
   <g id="patch_16">
    <path clip-path="url(#pd5f248d377)" d="M 361.04965 142.855705 
L 508.462238 142.855705 
L 508.462238 108.817488 
L 361.04965 108.817488 
z
" style="fill:#90caf9;"/>
   </g>
   <g id="patch_17">
    <path clip-path="url(#pd5f248d377)" d="M 361.04965 108.817488 
L 508.462238 108.817488 
L 508.462238 108.817488 
L 361.04965 108.817488 
z
" style="fill:#bcaaa4;"/>
   </g>
   <g id="patch_18">
    <path clip-path="url(#pd5f248d377)" d="M 361.04965 108.817488 
L 508.462238 108.817488 
L 508.462238 108.817488 
L 361.04965 108.817488 
z
" style="fill:#bdbdbd;"/>
   </g>
   <g id="matplotlib.axis_1">
    <g id="xtick_1">
     <g id="line2d_1">
      <defs>
       <path d="M 0 0 
L 0 3.5 
" id="m2ae50aa324" style="stroke:#000000;stroke-width:0.8;"/>
      </defs>
      <g>
       <use style="stroke:#000000;stroke-width:0.8;" x="250.49021" xlink:href="#m2ae50aa324" y="476.83125"/>
      </g>
     </g>
     <g id="text_1">
      <!-- +Starch -->
      <defs>
       <path d="M 25.046875 11.578125 
L 25.046875 31.203125 
L 5.5625 31.203125 
L 5.5625 39.40625 
L 25.046875 39.40625 
L 25.046875 58.890625 
L 33.34375 58.890625 
L 33.34375 39.40625 
L 52.828125 39.40625 
L 52.828125 31.203125 
L 33.34375 31.203125 
L 33.34375 11.578125 
z
" id="ArialMT-2b"/>
       <path d="M 4.5 23 
L 13.421875 23.78125 
Q 14.0625 18.40625 16.375 14.96875 
Q 18.703125 11.53125 23.578125 9.40625 
Q 28.46875 7.28125 34.578125 7.28125 
Q 39.984375 7.28125 44.140625 8.890625 
Q 48.296875 10.5 50.3125 13.296875 
Q 52.34375 16.109375 52.34375 19.4375 
Q 52.34375 22.796875 50.390625 25.3125 
Q 48.4375 27.828125 43.953125 29.546875 
Q 41.0625 30.671875 31.203125 33.03125 
Q 21.34375 35.40625 17.390625 37.5 
Q 12.25 40.1875 9.734375 44.15625 
Q 7.234375 48.140625 7.234375 53.078125 
Q 7.234375 58.5 10.296875 63.203125 
Q 13.375 67.921875 19.28125 70.359375 
Q 25.203125 72.796875 32.421875 72.796875 
Q 40.375 72.796875 46.453125 70.234375 
Q 52.546875 67.671875 55.8125 62.6875 
Q 59.078125 57.71875 59.328125 51.421875 
L 50.25 50.734375 
Q 49.515625 57.515625 45.28125 60.984375 
Q 41.0625 64.453125 32.8125 64.453125 
Q 24.21875 64.453125 20.28125 61.296875 
Q 16.359375 58.15625 16.359375 53.71875 
Q 16.359375 49.859375 19.140625 47.359375 
Q 21.875 44.875 33.421875 42.265625 
Q 44.96875 39.65625 49.265625 37.703125 
Q 55.515625 34.8125 58.484375 30.390625 
Q 61.46875 25.984375 61.46875 20.21875 
Q 61.46875 14.5 58.203125 9.4375 
Q 54.9375 4.390625 48.796875 1.578125 
Q 42.671875 -1.21875 35.015625 -1.21875 
Q 25.296875 -1.21875 18.71875 1.609375 
Q 12.15625 4.4375 8.421875 10.125 
Q 4.6875 15.828125 4.5 23 
z
" id="ArialMT-53"/>
       <path d="M 25.78125 7.859375 
L 27.046875 0.09375 
Q 23.34375 -0.6875 20.40625 -0.6875 
Q 15.625 -0.6875 12.984375 0.828125 
Q 10.359375 2.34375 9.28125 4.8125 
Q 8.203125 7.28125 8.203125 15.1875 
L 8.203125 45.015625 
L 1.765625 45.015625 
L 1.765625 51.859375 
L 8.203125 51.859375 
L 8.203125 64.703125 
L 16.9375 69.96875 
L 16.9375 51.859375 
L 25.78125 51.859375 
L 25.78125 45.015625 
L 16.9375 45.015625 
L 16.9375 14.703125 
Q 16.9375 10.9375 17.40625 9.859375 
Q 17.875 8.796875 18.921875 8.15625 
Q 19.96875 7.515625 21.921875 7.515625 
Q 23.390625 7.515625 25.78125 7.859375 
z
" id="ArialMT-74"/>
       <path d="M 40.4375 6.390625 
Q 35.546875 2.25 31.03125 0.53125 
Q 26.515625 -1.171875 21.34375 -1.171875 
Q 12.796875 -1.171875 8.203125 3 
Q 3.609375 7.171875 3.609375 13.671875 
Q 3.609375 17.484375 5.34375 20.625 
Q 7.078125 23.78125 9.890625 25.6875 
Q 12.703125 27.59375 16.21875 28.5625 
Q 18.796875 29.25 24.03125 29.890625 
Q 34.671875 31.15625 39.703125 32.90625 
Q 39.75 34.71875 39.75 35.203125 
Q 39.75 40.578125 37.25 42.78125 
Q 33.890625 45.75 27.25 45.75 
Q 21.046875 45.75 18.09375 43.578125 
Q 15.140625 41.40625 13.71875 35.890625 
L 5.125 37.0625 
Q 6.296875 42.578125 8.984375 45.96875 
Q 11.671875 49.359375 16.75 51.1875 
Q 21.828125 53.03125 28.515625 53.03125 
Q 35.15625 53.03125 39.296875 51.46875 
Q 43.453125 49.90625 45.40625 47.53125 
Q 47.359375 45.171875 48.140625 41.546875 
Q 48.578125 39.3125 48.578125 33.453125 
L 48.578125 21.734375 
Q 48.578125 9.46875 49.140625 6.21875 
Q 49.703125 2.984375 51.375 0 
L 42.1875 0 
Q 40.828125 2.734375 40.4375 6.390625 
z
M 39.703125 26.03125 
Q 34.90625 24.078125 25.34375 22.703125 
Q 19.921875 21.921875 17.671875 20.9375 
Q 15.4375 19.96875 14.203125 18.09375 
Q 12.984375 16.21875 12.984375 13.921875 
Q 12.984375 10.40625 15.640625 8.0625 
Q 18.3125 5.71875 23.4375 5.71875 
Q 28.515625 5.71875 32.46875 7.9375 
Q 36.421875 10.15625 38.28125 14.015625 
Q 39.703125 17 39.703125 22.796875 
z
" id="ArialMT-61"/>
       <path d="M 6.5 0 
L 6.5 51.859375 
L 14.40625 51.859375 
L 14.40625 44 
Q 17.4375 49.515625 20 51.265625 
Q 22.5625 53.03125 25.640625 53.03125 
Q 30.078125 53.03125 34.671875 50.203125 
L 31.640625 42.046875 
Q 28.421875 43.953125 25.203125 43.953125 
Q 22.3125 43.953125 20.015625 42.21875 
Q 17.71875 40.484375 16.75 37.40625 
Q 15.28125 32.71875 15.28125 27.15625 
L 15.28125 0 
z
" id="ArialMT-72"/>
       <path d="M 40.4375 19 
L 49.078125 17.875 
Q 47.65625 8.9375 41.8125 3.875 
Q 35.984375 -1.171875 27.484375 -1.171875 
Q 16.84375 -1.171875 10.375 5.78125 
Q 3.90625 12.75 3.90625 25.734375 
Q 3.90625 34.125 6.6875 40.421875 
Q 9.46875 46.734375 15.15625 49.875 
Q 20.84375 53.03125 27.546875 53.03125 
Q 35.984375 53.03125 41.359375 48.75 
Q 46.734375 44.484375 48.25 36.625 
L 39.703125 35.296875 
Q 38.484375 40.53125 35.375 43.15625 
Q 32.28125 45.796875 27.875 45.796875 
Q 21.234375 45.796875 17.078125 41.03125 
Q 12.9375 36.28125 12.9375 25.984375 
Q 12.9375 15.53125 16.9375 10.796875 
Q 20.953125 6.0625 27.390625 6.0625 
Q 32.5625 6.0625 36.03125 9.234375 
Q 39.5 12.40625 40.4375 19 
z
" id="ArialMT-63"/>
       <path d="M 6.59375 0 
L 6.59375 71.578125 
L 15.375 71.578125 
L 15.375 45.90625 
Q 21.53125 53.03125 30.90625 53.03125 
Q 36.671875 53.03125 40.921875 50.75 
Q 45.171875 48.484375 47 44.484375 
Q 48.828125 40.484375 48.828125 32.859375 
L 48.828125 0 
L 40.046875 0 
L 40.046875 32.859375 
Q 40.046875 39.453125 37.1875 42.453125 
Q 34.328125 45.453125 29.109375 45.453125 
Q 25.203125 45.453125 21.75 43.421875 
Q 18.3125 41.40625 16.84375 37.9375 
Q 15.375 34.46875 15.375 28.375 
L 15.375 0 
z
" id="ArialMT-68"/>
      </defs>
      <g transform="translate(198.379272 521.804687)scale(0.3 -0.3)">
       <use xlink:href="#ArialMT-2b"/>
       <use x="58.398438" xlink:href="#ArialMT-53"/>
       <use x="125.097656" xlink:href="#ArialMT-74"/>
       <use x="152.880859" xlink:href="#ArialMT-61"/>
       <use x="208.496094" xlink:href="#ArialMT-72"/>
       <use x="241.796875" xlink:href="#ArialMT-63"/>
       <use x="291.796875" xlink:href="#ArialMT-68"/>
      </g>
     </g>
    </g>
    <g id="xtick_2">
     <g id="line2d_2">
      <g>
       <use style="stroke:#000000;stroke-width:0.8;" x="434.755944" xlink:href="#m2ae50aa324" y="476.83125"/>
      </g>
     </g>
     <g id="text_2">
      <!-- -Starch -->
      <defs>
       <path d="M 3.171875 21.484375 
L 3.171875 30.328125 
L 30.171875 30.328125 
L 30.171875 21.484375 
z
" id="ArialMT-2d"/>
      </defs>
      <g transform="translate(386.411413 521.804687)scale(0.3 -0.3)">
       <use xlink:href="#ArialMT-2d"/>
       <use x="33.300781" xlink:href="#ArialMT-53"/>
       <use x="100" xlink:href="#ArialMT-74"/>
       <use x="127.783203" xlink:href="#ArialMT-61"/>
       <use x="183.398438" xlink:href="#ArialMT-72"/>
       <use x="216.699219" xlink:href="#ArialMT-63"/>
       <use x="266.699219" xlink:href="#ArialMT-68"/>
      </g>
     </g>
    </g>
   </g>
   <g id="matplotlib.axis_2">
    <g id="ytick_1">
     <g id="line2d_3">
      <defs>
       <path d="M 0 0 
L -3.5 0 
" id="mf94fbb1eee" style="stroke:#000000;stroke-width:0.8;"/>
      </defs>
      <g>
       <use style="stroke:#000000;stroke-width:0.8;" x="160.2" xlink:href="#mf94fbb1eee" y="476.83125"/>
      </g>
     </g>
     <g id="text_3">
      <!-- 0.00 -->
      <defs>
       <path d="M 4.15625 35.296875 
Q 4.15625 48 6.765625 55.734375 
Q 9.375 63.484375 14.515625 67.671875 
Q 19.671875 71.875 27.484375 71.875 
Q 33.25 71.875 37.59375 69.546875 
Q 41.9375 67.234375 44.765625 62.859375 
Q 47.609375 58.5 49.21875 52.21875 
Q 50.828125 45.953125 50.828125 35.296875 
Q 50.828125 22.703125 48.234375 14.96875 
Q 45.65625 7.234375 40.5 3 
Q 35.359375 -1.21875 27.484375 -1.21875 
Q 17.140625 -1.21875 11.234375 6.203125 
Q 4.15625 15.140625 4.15625 35.296875 
z
M 13.1875 35.296875 
Q 13.1875 17.671875 17.3125 11.828125 
Q 21.4375 6 27.484375 6 
Q 33.546875 6 37.671875 11.859375 
Q 41.796875 17.71875 41.796875 35.296875 
Q 41.796875 52.984375 37.671875 58.78125 
Q 33.546875 64.59375 27.390625 64.59375 
Q 21.34375 64.59375 17.71875 59.46875 
Q 13.1875 52.9375 13.1875 35.296875 
z
" id="ArialMT-30"/>
       <path d="M 9.078125 0 
L 9.078125 10.015625 
L 19.09375 10.015625 
L 19.09375 0 
z
" id="ArialMT-2e"/>
      </defs>
      <g transform="translate(94.817187 487.567969)scale(0.3 -0.3)">
       <use xlink:href="#ArialMT-30"/>
       <use x="55.615234" xlink:href="#ArialMT-2e"/>
       <use x="83.398438" xlink:href="#ArialMT-30"/>
       <use x="139.013672" xlink:href="#ArialMT-30"/>
      </g>
     </g>
    </g>
    <g id="ytick_2">
     <g id="line2d_4">
      <g>
       <use style="stroke:#000000;stroke-width:0.8;" x="160.2" xlink:href="#mf94fbb1eee" y="318.28125"/>
      </g>
     </g>
     <g id="text_4">
      <!-- 0.75 -->
      <defs>
       <path d="M 4.734375 62.203125 
L 4.734375 70.65625 
L 51.078125 70.65625 
L 51.078125 63.8125 
Q 44.234375 56.546875 37.515625 44.484375 
Q 30.8125 32.421875 27.15625 19.671875 
Q 24.515625 10.6875 23.78125 0 
L 14.75 0 
Q 14.890625 8.453125 18.0625 20.40625 
Q 21.234375 32.375 27.171875 43.484375 
Q 33.109375 54.59375 39.796875 62.203125 
z
" id="ArialMT-37"/>
       <path d="M 4.15625 18.75 
L 13.375 19.53125 
Q 14.40625 12.796875 18.140625 9.390625 
Q 21.875 6 27.15625 6 
Q 33.5 6 37.890625 10.78125 
Q 42.28125 15.578125 42.28125 23.484375 
Q 42.28125 31 38.0625 35.34375 
Q 33.84375 39.703125 27 39.703125 
Q 22.75 39.703125 19.328125 37.765625 
Q 15.921875 35.84375 13.96875 32.765625 
L 5.71875 33.84375 
L 12.640625 70.609375 
L 48.25 70.609375 
L 48.25 62.203125 
L 19.671875 62.203125 
L 15.828125 42.96875 
Q 22.265625 47.46875 29.34375 47.46875 
Q 38.71875 47.46875 45.15625 40.96875 
Q 51.609375 34.46875 51.609375 24.265625 
Q 51.609375 14.546875 45.953125 7.46875 
Q 39.0625 -1.21875 27.15625 -1.21875 
Q 17.390625 -1.21875 11.203125 4.25 
Q 5.03125 9.71875 4.15625 18.75 
z
" id="ArialMT-35"/>
      </defs>
      <g transform="translate(94.817187 329.017969)scale(0.3 -0.3)">
       <use xlink:href="#ArialMT-30"/>
       <use x="55.615234" xlink:href="#ArialMT-2e"/>
       <use x="83.398438" xlink:href="#ArialMT-37"/>
       <use x="139.013672" xlink:href="#ArialMT-35"/>
      </g>
     </g>
    </g>
    <g id="ytick_3">
     <g id="line2d_5">
      <g>
       <use style="stroke:#000000;stroke-width:0.8;" x="160.2" xlink:href="#mf94fbb1eee" y="159.73125"/>
      </g>
     </g>
     <g id="text_5">
      <!-- 1.50 -->
      <defs>
       <path d="M 37.25 0 
L 28.46875 0 
L 28.46875 56 
Q 25.296875 52.984375 20.140625 49.953125 
Q 14.984375 46.921875 10.890625 45.40625 
L 10.890625 53.90625 
Q 18.265625 57.375 23.78125 62.296875 
Q 29.296875 67.234375 31.59375 71.875 
L 37.25 71.875 
z
" id="ArialMT-31"/>
      </defs>
      <g transform="translate(94.817187 170.467969)scale(0.3 -0.3)">
       <use xlink:href="#ArialMT-31"/>
       <use x="55.615234" xlink:href="#ArialMT-2e"/>
       <use x="83.398438" xlink:href="#ArialMT-35"/>
       <use x="139.013672" xlink:href="#ArialMT-30"/>
      </g>
     </g>
    </g>
    <g id="text_6">
     <!-- Guard cell osmolyte  -->
     <defs>
      <path d="M 41.21875 28.078125 
L 41.21875 36.46875 
L 71.53125 36.53125 
L 71.53125 9.96875 
Q 64.546875 4.390625 57.125 1.578125 
Q 49.703125 -1.21875 41.890625 -1.21875 
Q 31.34375 -1.21875 22.71875 3.296875 
Q 14.109375 7.8125 9.71875 16.359375 
Q 5.328125 24.90625 5.328125 35.453125 
Q 5.328125 45.90625 9.6875 54.953125 
Q 14.0625 64.015625 22.265625 68.40625 
Q 30.46875 72.796875 41.15625 72.796875 
Q 48.921875 72.796875 55.1875 70.28125 
Q 61.46875 67.78125 65.03125 63.28125 
Q 68.609375 58.796875 70.453125 51.5625 
L 61.921875 49.21875 
Q 60.296875 54.6875 57.90625 57.8125 
Q 55.515625 60.9375 51.0625 62.8125 
Q 46.625 64.703125 41.21875 64.703125 
Q 34.71875 64.703125 29.984375 62.71875 
Q 25.25 60.75 22.34375 57.515625 
Q 19.4375 54.296875 17.828125 50.4375 
Q 15.09375 43.796875 15.09375 36.03125 
Q 15.09375 26.46875 18.390625 20.015625 
Q 21.6875 13.578125 27.984375 10.453125 
Q 34.28125 7.328125 41.359375 7.328125 
Q 47.515625 7.328125 53.375 9.6875 
Q 59.234375 12.0625 62.25 14.75 
L 62.25 28.078125 
z
" id="ArialMT-47"/>
      <path d="M 40.578125 0 
L 40.578125 7.625 
Q 34.515625 -1.171875 24.125 -1.171875 
Q 19.53125 -1.171875 15.546875 0.578125 
Q 11.578125 2.34375 9.640625 5 
Q 7.71875 7.671875 6.9375 11.53125 
Q 6.390625 14.109375 6.390625 19.734375 
L 6.390625 51.859375 
L 15.1875 51.859375 
L 15.1875 23.09375 
Q 15.1875 16.21875 15.71875 13.8125 
Q 16.546875 10.359375 19.234375 8.375 
Q 21.921875 6.390625 25.875 6.390625 
Q 29.828125 6.390625 33.296875 8.421875 
Q 36.765625 10.453125 38.203125 13.9375 
Q 39.65625 17.4375 39.65625 24.078125 
L 39.65625 51.859375 
L 48.4375 51.859375 
L 48.4375 0 
z
" id="ArialMT-75"/>
      <path d="M 40.234375 0 
L 40.234375 6.546875 
Q 35.296875 -1.171875 25.734375 -1.171875 
Q 19.53125 -1.171875 14.328125 2.25 
Q 9.125 5.671875 6.265625 11.796875 
Q 3.421875 17.921875 3.421875 25.875 
Q 3.421875 33.640625 6 39.96875 
Q 8.59375 46.296875 13.765625 49.65625 
Q 18.953125 53.03125 25.34375 53.03125 
Q 30.03125 53.03125 33.6875 51.046875 
Q 37.359375 49.078125 39.65625 45.90625 
L 39.65625 71.578125 
L 48.390625 71.578125 
L 48.390625 0 
z
M 12.453125 25.875 
Q 12.453125 15.921875 16.640625 10.984375 
Q 20.84375 6.0625 26.5625 6.0625 
Q 32.328125 6.0625 36.34375 10.765625 
Q 40.375 15.484375 40.375 25.140625 
Q 40.375 35.796875 36.265625 40.765625 
Q 32.171875 45.75 26.171875 45.75 
Q 20.3125 45.75 16.375 40.96875 
Q 12.453125 36.1875 12.453125 25.875 
z
" id="ArialMT-64"/>
      <path id="ArialMT-20"/>
      <path d="M 42.09375 16.703125 
L 51.171875 15.578125 
Q 49.03125 7.625 43.21875 3.21875 
Q 37.40625 -1.171875 28.375 -1.171875 
Q 17 -1.171875 10.328125 5.828125 
Q 3.65625 12.84375 3.65625 25.484375 
Q 3.65625 38.578125 10.390625 45.796875 
Q 17.140625 53.03125 27.875 53.03125 
Q 38.28125 53.03125 44.875 45.953125 
Q 51.46875 38.875 51.46875 26.03125 
Q 51.46875 25.25 51.421875 23.6875 
L 12.75 23.6875 
Q 13.234375 15.140625 17.578125 10.59375 
Q 21.921875 6.0625 28.421875 6.0625 
Q 33.25 6.0625 36.671875 8.59375 
Q 40.09375 11.140625 42.09375 16.703125 
z
M 13.234375 30.90625 
L 42.1875 30.90625 
Q 41.609375 37.453125 38.875 40.71875 
Q 34.671875 45.796875 27.984375 45.796875 
Q 21.921875 45.796875 17.796875 41.75 
Q 13.671875 37.703125 13.234375 30.90625 
z
" id="ArialMT-65"/>
      <path d="M 6.390625 0 
L 6.390625 71.578125 
L 15.1875 71.578125 
L 15.1875 0 
z
" id="ArialMT-6c"/>
      <path d="M 3.328125 25.921875 
Q 3.328125 40.328125 11.328125 47.265625 
Q 18.015625 53.03125 27.640625 53.03125 
Q 38.328125 53.03125 45.109375 46.015625 
Q 51.90625 39.015625 51.90625 26.65625 
Q 51.90625 16.65625 48.90625 10.90625 
Q 45.90625 5.171875 40.15625 2 
Q 34.421875 -1.171875 27.640625 -1.171875 
Q 16.75 -1.171875 10.03125 5.8125 
Q 3.328125 12.796875 3.328125 25.921875 
z
M 12.359375 25.921875 
Q 12.359375 15.96875 16.703125 11.015625 
Q 21.046875 6.0625 27.640625 6.0625 
Q 34.1875 6.0625 38.53125 11.03125 
Q 42.875 16.015625 42.875 26.21875 
Q 42.875 35.84375 38.5 40.796875 
Q 34.125 45.75 27.640625 45.75 
Q 21.046875 45.75 16.703125 40.8125 
Q 12.359375 35.890625 12.359375 25.921875 
z
" id="ArialMT-6f"/>
      <path d="M 3.078125 15.484375 
L 11.765625 16.84375 
Q 12.5 11.625 15.84375 8.84375 
Q 19.1875 6.0625 25.203125 6.0625 
Q 31.25 6.0625 34.171875 8.515625 
Q 37.109375 10.984375 37.109375 14.3125 
Q 37.109375 17.28125 34.515625 19 
Q 32.71875 20.171875 25.53125 21.96875 
Q 15.875 24.421875 12.140625 26.203125 
Q 8.40625 27.984375 6.46875 31.125 
Q 4.546875 34.28125 4.546875 38.09375 
Q 4.546875 41.546875 6.125 44.5 
Q 7.71875 47.46875 10.453125 49.421875 
Q 12.5 50.921875 16.03125 51.96875 
Q 19.578125 53.03125 23.640625 53.03125 
Q 29.734375 53.03125 34.34375 51.265625 
Q 38.96875 49.515625 41.15625 46.5 
Q 43.359375 43.5 44.1875 38.484375 
L 35.59375 37.3125 
Q 35.015625 41.3125 32.203125 43.546875 
Q 29.390625 45.796875 24.265625 45.796875 
Q 18.21875 45.796875 15.625 43.796875 
Q 13.03125 41.796875 13.03125 39.109375 
Q 13.03125 37.40625 14.109375 36.03125 
Q 15.1875 34.625 17.484375 33.6875 
Q 18.796875 33.203125 25.25 31.453125 
Q 34.578125 28.953125 38.25 27.359375 
Q 41.9375 25.78125 44.03125 22.75 
Q 46.140625 19.734375 46.140625 15.234375 
Q 46.140625 10.84375 43.578125 6.953125 
Q 41.015625 3.078125 36.171875 0.953125 
Q 31.34375 -1.171875 25.25 -1.171875 
Q 15.140625 -1.171875 9.84375 3.03125 
Q 4.546875 7.234375 3.078125 15.484375 
z
" id="ArialMT-73"/>
      <path d="M 6.59375 0 
L 6.59375 51.859375 
L 14.453125 51.859375 
L 14.453125 44.578125 
Q 16.890625 48.390625 20.9375 50.703125 
Q 25 53.03125 30.171875 53.03125 
Q 35.9375 53.03125 39.625 50.640625 
Q 43.3125 48.25 44.828125 43.953125 
Q 50.984375 53.03125 60.84375 53.03125 
Q 68.5625 53.03125 72.703125 48.75 
Q 76.859375 44.484375 76.859375 35.59375 
L 76.859375 0 
L 68.109375 0 
L 68.109375 32.671875 
Q 68.109375 37.9375 67.25 40.25 
Q 66.40625 42.578125 64.15625 43.984375 
Q 61.921875 45.40625 58.890625 45.40625 
Q 53.421875 45.40625 49.796875 41.765625 
Q 46.1875 38.140625 46.1875 30.125 
L 46.1875 0 
L 37.40625 0 
L 37.40625 33.6875 
Q 37.40625 39.546875 35.25 42.46875 
Q 33.109375 45.40625 28.21875 45.40625 
Q 24.515625 45.40625 21.359375 43.453125 
Q 18.21875 41.5 16.796875 37.734375 
Q 15.375 33.984375 15.375 26.90625 
L 15.375 0 
z
" id="ArialMT-6d"/>
      <path d="M 6.203125 -19.96875 
L 5.21875 -11.71875 
Q 8.109375 -12.5 10.25 -12.5 
Q 13.1875 -12.5 14.9375 -11.515625 
Q 16.703125 -10.546875 17.828125 -8.796875 
Q 18.65625 -7.46875 20.515625 -2.25 
Q 20.75 -1.515625 21.296875 -0.09375 
L 1.609375 51.859375 
L 11.078125 51.859375 
L 21.875 21.828125 
Q 23.96875 16.109375 25.640625 9.8125 
Q 27.15625 15.875 29.25 21.625 
L 40.328125 51.859375 
L 49.125 51.859375 
L 29.390625 -0.875 
Q 26.21875 -9.421875 24.46875 -12.640625 
Q 22.125 -17 19.09375 -19.015625 
Q 16.0625 -21.046875 11.859375 -21.046875 
Q 9.328125 -21.046875 6.203125 -19.96875 
z
" id="ArialMT-79"/>
     </defs>
     <g transform="translate(51.982187 423.284531)rotate(-90)scale(0.3 -0.3)">
      <use xlink:href="#ArialMT-47"/>
      <use x="77.783203" xlink:href="#ArialMT-75"/>
      <use x="133.398438" xlink:href="#ArialMT-61"/>
      <use x="189.013672" xlink:href="#ArialMT-72"/>
      <use x="222.314453" xlink:href="#ArialMT-64"/>
      <use x="277.929688" xlink:href="#ArialMT-20"/>
      <use x="305.712891" xlink:href="#ArialMT-63"/>
      <use x="355.712891" xlink:href="#ArialMT-65"/>
      <use x="411.328125" xlink:href="#ArialMT-6c"/>
      <use x="433.544922" xlink:href="#ArialMT-6c"/>
      <use x="455.761719" xlink:href="#ArialMT-20"/>
      <use x="483.544922" xlink:href="#ArialMT-6f"/>
      <use x="539.160156" xlink:href="#ArialMT-73"/>
      <use x="589.160156" xlink:href="#ArialMT-6d"/>
      <use x="672.460938" xlink:href="#ArialMT-6f"/>
      <use x="728.076172" xlink:href="#ArialMT-6c"/>
      <use x="750.292969" xlink:href="#ArialMT-79"/>
      <use x="800.292969" xlink:href="#ArialMT-74"/>
      <use x="828.076172" xlink:href="#ArialMT-65"/>
      <use x="883.691406" xlink:href="#ArialMT-20"/>
     </g>
     <!--  level (moles) -->
     <defs>
      <path d="M 21 0 
L 1.265625 51.859375 
L 10.546875 51.859375 
L 21.6875 20.796875 
Q 23.484375 15.765625 25 10.359375 
Q 26.171875 14.453125 28.265625 20.21875 
L 39.796875 51.859375 
L 48.828125 51.859375 
L 29.203125 0 
z
" id="ArialMT-76"/>
      <path d="M 23.390625 -21.046875 
Q 16.109375 -11.859375 11.078125 0.4375 
Q 6.0625 12.75 6.0625 25.921875 
Q 6.0625 37.546875 9.8125 48.1875 
Q 14.203125 60.546875 23.390625 72.796875 
L 29.6875 72.796875 
Q 23.78125 62.640625 21.875 58.296875 
Q 18.890625 51.5625 17.1875 44.234375 
Q 15.09375 35.109375 15.09375 25.875 
Q 15.09375 2.390625 29.6875 -21.046875 
z
" id="ArialMT-28"/>
      <path d="M 12.359375 -21.046875 
L 6.0625 -21.046875 
Q 20.65625 2.390625 20.65625 25.875 
Q 20.65625 35.0625 18.5625 44.09375 
Q 16.890625 51.421875 13.921875 58.15625 
Q 12.015625 62.546875 6.0625 72.796875 
L 12.359375 72.796875 
Q 21.53125 60.546875 25.921875 48.1875 
Q 29.6875 37.546875 29.6875 25.921875 
Q 29.6875 12.75 24.625 0.4375 
Q 19.578125 -11.859375 12.359375 -21.046875 
z
" id="ArialMT-29"/>
     </defs>
     <g transform="translate(84.503125 375.753281)rotate(-90)scale(0.3 -0.3)">
      <use xlink:href="#ArialMT-20"/>
      <use x="27.783203" xlink:href="#ArialMT-6c"/>
      <use x="50" xlink:href="#ArialMT-65"/>
      <use x="105.615234" xlink:href="#ArialMT-76"/>
      <use x="155.615234" xlink:href="#ArialMT-65"/>
      <use x="211.230469" xlink:href="#ArialMT-6c"/>
      <use x="233.447266" xlink:href="#ArialMT-20"/>
      <use x="261.230469" xlink:href="#ArialMT-28"/>
      <use x="294.53125" xlink:href="#ArialMT-6d"/>
      <use x="377.832031" xlink:href="#ArialMT-6f"/>
      <use x="433.447266" xlink:href="#ArialMT-6c"/>
      <use x="455.664062" xlink:href="#ArialMT-65"/>
      <use x="511.279297" xlink:href="#ArialMT-73"/>
      <use x="561.279297" xlink:href="#ArialMT-29"/>
     </g>
    </g>
   </g>
   <g id="patch_19">
    <path d="M 160.2 476.83125 
L 160.2 96.31125 
" style="fill:none;stroke:#000000;stroke-linecap:square;stroke-linejoin:miter;stroke-width:3;"/>
   </g>
   <g id="patch_20">
    <path d="M 525.046154 476.83125 
L 525.046154 96.31125 
" style="fill:none;stroke:#000000;stroke-linecap:square;stroke-linejoin:miter;stroke-width:3;"/>
   </g>
   <g id="patch_21">
    <path d="M 160.2 476.83125 
L 525.046154 476.83125 
" style="fill:none;stroke:#000000;stroke-linecap:square;stroke-linejoin:miter;stroke-width:3;"/>
   </g>
   <g id="patch_22">
    <path d="M 160.2 96.31125 
L 525.046154 96.31125 
" style="fill:none;stroke:#000000;stroke-linecap:square;stroke-linejoin:miter;stroke-width:3;"/>
   </g>
   <g id="legend_1">
    <g id="patch_23">
     <path d="M 114.948498 629.489156 
L 460.84381 629.489156 
Q 463.84381 629.489156 463.84381 626.489156 
L 463.84381 563.43525 
Q 463.84381 560.43525 460.84381 560.43525 
L 114.948498 560.43525 
Q 111.948498 560.43525 111.948498 563.43525 
L 111.948498 626.489156 
Q 111.948498 629.489156 114.948498 629.489156 
z
" style="fill:#ffffff;opacity:0.8;stroke:#cccccc;stroke-linejoin:miter;"/>
    </g>
    <g id="patch_24">
     <path d="M 117.948498 577.354781 
L 147.948498 577.354781 
L 147.948498 566.854781 
L 117.948498 566.854781 
z
" style="fill:#bcaaa4;"/>
    </g>
    <g id="text_7">
     <!-- Starch degradation -->
     <defs>
      <path d="M 4.984375 -4.296875 
L 13.53125 -5.5625 
Q 14.0625 -9.515625 16.5 -11.328125 
Q 19.78125 -13.765625 25.4375 -13.765625 
Q 31.546875 -13.765625 34.859375 -11.328125 
Q 38.1875 -8.890625 39.359375 -4.5 
Q 40.046875 -1.8125 39.984375 6.78125 
Q 34.234375 0 25.640625 0 
Q 14.9375 0 9.078125 7.71875 
Q 3.21875 15.4375 3.21875 26.21875 
Q 3.21875 33.640625 5.90625 39.90625 
Q 8.59375 46.1875 13.6875 49.609375 
Q 18.796875 53.03125 25.6875 53.03125 
Q 34.859375 53.03125 40.828125 45.609375 
L 40.828125 51.859375 
L 48.921875 51.859375 
L 48.921875 7.03125 
Q 48.921875 -5.078125 46.453125 -10.125 
Q 44 -15.1875 38.640625 -18.109375 
Q 33.296875 -21.046875 25.484375 -21.046875 
Q 16.21875 -21.046875 10.5 -16.875 
Q 4.78125 -12.703125 4.984375 -4.296875 
z
M 12.25 26.859375 
Q 12.25 16.65625 16.296875 11.96875 
Q 20.359375 7.28125 26.46875 7.28125 
Q 32.515625 7.28125 36.609375 11.9375 
Q 40.71875 16.609375 40.71875 26.5625 
Q 40.71875 36.078125 36.5 40.90625 
Q 32.28125 45.75 26.3125 45.75 
Q 20.453125 45.75 16.34375 40.984375 
Q 12.25 36.234375 12.25 26.859375 
z
" id="ArialMT-67"/>
      <path d="M 6.640625 61.46875 
L 6.640625 71.578125 
L 15.4375 71.578125 
L 15.4375 61.46875 
z
M 6.640625 0 
L 6.640625 51.859375 
L 15.4375 51.859375 
L 15.4375 0 
z
" id="ArialMT-69"/>
      <path d="M 6.59375 0 
L 6.59375 51.859375 
L 14.5 51.859375 
L 14.5 44.484375 
Q 20.21875 53.03125 31 53.03125 
Q 35.6875 53.03125 39.625 51.34375 
Q 43.5625 49.65625 45.515625 46.921875 
Q 47.46875 44.1875 48.25 40.4375 
Q 48.734375 37.984375 48.734375 31.890625 
L 48.734375 0 
L 39.9375 0 
L 39.9375 31.546875 
Q 39.9375 36.921875 38.90625 39.578125 
Q 37.890625 42.234375 35.28125 43.8125 
Q 32.671875 45.40625 29.15625 45.40625 
Q 23.53125 45.40625 19.453125 41.84375 
Q 15.375 38.28125 15.375 28.328125 
L 15.375 0 
z
" id="ArialMT-6e"/>
     </defs>
     <g transform="translate(159.948498 577.354781)scale(0.15 -0.15)">
      <use xlink:href="#ArialMT-53"/>
      <use x="66.699219" xlink:href="#ArialMT-74"/>
      <use x="94.482422" xlink:href="#ArialMT-61"/>
      <use x="150.097656" xlink:href="#ArialMT-72"/>
      <use x="183.398438" xlink:href="#ArialMT-63"/>
      <use x="233.398438" xlink:href="#ArialMT-68"/>
      <use x="289.013672" xlink:href="#ArialMT-20"/>
      <use x="316.796875" xlink:href="#ArialMT-64"/>
      <use x="372.412109" xlink:href="#ArialMT-65"/>
      <use x="428.027344" xlink:href="#ArialMT-67"/>
      <use x="483.642578" xlink:href="#ArialMT-72"/>
      <use x="516.943359" xlink:href="#ArialMT-61"/>
      <use x="572.558594" xlink:href="#ArialMT-64"/>
      <use x="628.173828" xlink:href="#ArialMT-61"/>
      <use x="683.789062" xlink:href="#ArialMT-74"/>
      <use x="711.572266" xlink:href="#ArialMT-69"/>
      <use x="733.789062" xlink:href="#ArialMT-6f"/>
      <use x="789.404297" xlink:href="#ArialMT-6e"/>
     </g>
    </g>
    <g id="patch_25">
     <path d="M 117.948498 598.931344 
L 147.948498 598.931344 
L 147.948498 588.431344 
L 117.948498 588.431344 
z
" style="fill:#90caf9;"/>
    </g>
    <g id="text_8">
     <!-- Imported from mesophyll -->
     <defs>
      <path d="M 9.328125 0 
L 9.328125 71.578125 
L 18.796875 71.578125 
L 18.796875 0 
z
" id="ArialMT-49"/>
      <path d="M 6.59375 -19.875 
L 6.59375 51.859375 
L 14.59375 51.859375 
L 14.59375 45.125 
Q 17.4375 49.078125 21 51.046875 
Q 24.5625 53.03125 29.640625 53.03125 
Q 36.28125 53.03125 41.359375 49.609375 
Q 46.4375 46.1875 49.015625 39.953125 
Q 51.609375 33.734375 51.609375 26.3125 
Q 51.609375 18.359375 48.75 11.984375 
Q 45.90625 5.609375 40.453125 2.21875 
Q 35.015625 -1.171875 29 -1.171875 
Q 24.609375 -1.171875 21.109375 0.6875 
Q 17.625 2.546875 15.375 5.375 
L 15.375 -19.875 
z
M 14.546875 25.640625 
Q 14.546875 15.625 18.59375 10.84375 
Q 22.65625 6.0625 28.421875 6.0625 
Q 34.28125 6.0625 38.453125 11.015625 
Q 42.625 15.96875 42.625 26.375 
Q 42.625 36.28125 38.546875 41.203125 
Q 34.46875 46.140625 28.8125 46.140625 
Q 23.1875 46.140625 18.859375 40.890625 
Q 14.546875 35.640625 14.546875 25.640625 
z
" id="ArialMT-70"/>
      <path d="M 8.6875 0 
L 8.6875 45.015625 
L 0.921875 45.015625 
L 0.921875 51.859375 
L 8.6875 51.859375 
L 8.6875 57.375 
Q 8.6875 62.59375 9.625 65.140625 
Q 10.890625 68.5625 14.078125 70.671875 
Q 17.28125 72.796875 23.046875 72.796875 
Q 26.765625 72.796875 31.25 71.921875 
L 29.9375 64.265625 
Q 27.203125 64.75 24.75 64.75 
Q 20.75 64.75 19.09375 63.03125 
Q 17.4375 61.328125 17.4375 56.640625 
L 17.4375 51.859375 
L 27.546875 51.859375 
L 27.546875 45.015625 
L 17.4375 45.015625 
L 17.4375 0 
z
" id="ArialMT-66"/>
     </defs>
     <g transform="translate(159.948498 598.931344)scale(0.15 -0.15)">
      <use xlink:href="#ArialMT-49"/>
      <use x="27.783203" xlink:href="#ArialMT-6d"/>
      <use x="111.083984" xlink:href="#ArialMT-70"/>
      <use x="166.699219" xlink:href="#ArialMT-6f"/>
      <use x="222.314453" xlink:href="#ArialMT-72"/>
      <use x="255.615234" xlink:href="#ArialMT-74"/>
      <use x="283.398438" xlink:href="#ArialMT-65"/>
      <use x="339.013672" xlink:href="#ArialMT-64"/>
      <use x="394.628906" xlink:href="#ArialMT-20"/>
      <use x="422.412109" xlink:href="#ArialMT-66"/>
      <use x="450.195312" xlink:href="#ArialMT-72"/>
      <use x="483.496094" xlink:href="#ArialMT-6f"/>
      <use x="539.111328" xlink:href="#ArialMT-6d"/>
      <use x="622.412109" xlink:href="#ArialMT-20"/>
      <use x="650.195312" xlink:href="#ArialMT-6d"/>
      <use x="733.496094" xlink:href="#ArialMT-65"/>
      <use x="789.111328" xlink:href="#ArialMT-73"/>
      <use x="839.111328" xlink:href="#ArialMT-6f"/>
      <use x="894.726562" xlink:href="#ArialMT-70"/>
      <use x="950.341797" xlink:href="#ArialMT-68"/>
      <use x="1005.957031" xlink:href="#ArialMT-79"/>
      <use x="1055.957031" xlink:href="#ArialMT-6c"/>
      <use x="1078.173828" xlink:href="#ArialMT-6c"/>
     </g>
    </g>
    <g id="patch_26">
     <path d="M 117.948498 620.507906 
L 147.948498 620.507906 
L 147.948498 610.007906 
L 117.948498 610.007906 
z
" style="fill:#c5e1a5;"/>
    </g>
    <g id="text_9">
     <!-- Imported from apoplast -->
     <g transform="translate(159.948498 620.507906)scale(0.15 -0.15)">
      <use xlink:href="#ArialMT-49"/>
      <use x="27.783203" xlink:href="#ArialMT-6d"/>
      <use x="111.083984" xlink:href="#ArialMT-70"/>
      <use x="166.699219" xlink:href="#ArialMT-6f"/>
      <use x="222.314453" xlink:href="#ArialMT-72"/>
      <use x="255.615234" xlink:href="#ArialMT-74"/>
      <use x="283.398438" xlink:href="#ArialMT-65"/>
      <use x="339.013672" xlink:href="#ArialMT-64"/>
      <use x="394.628906" xlink:href="#ArialMT-20"/>
      <use x="422.412109" xlink:href="#ArialMT-66"/>
      <use x="450.195312" xlink:href="#ArialMT-72"/>
      <use x="483.496094" xlink:href="#ArialMT-6f"/>
      <use x="539.111328" xlink:href="#ArialMT-6d"/>
      <use x="622.412109" xlink:href="#ArialMT-20"/>
      <use x="650.195312" xlink:href="#ArialMT-61"/>
      <use x="705.810547" xlink:href="#ArialMT-70"/>
      <use x="761.425781" xlink:href="#ArialMT-6f"/>
      <use x="817.041016" xlink:href="#ArialMT-70"/>
      <use x="872.65625" xlink:href="#ArialMT-6c"/>
      <use x="894.873047" xlink:href="#ArialMT-61"/>
      <use x="950.488281" xlink:href="#ArialMT-73"/>
      <use x="1000.488281" xlink:href="#ArialMT-74"/>
     </g>
    </g>
    <g id="patch_27">
     <path d="M 354.995373 577.354781 
L 384.995373 577.354781 
L 384.995373 566.854781 
L 354.995373 566.854781 
z
" style="fill:#bdbdbd;"/>
    </g>
    <g id="text_10">
     <!-- Other -->
     <defs>
      <path d="M 4.828125 34.859375 
Q 4.828125 52.6875 14.390625 62.765625 
Q 23.96875 72.859375 39.109375 72.859375 
Q 49.03125 72.859375 56.984375 68.109375 
Q 64.9375 63.375 69.109375 54.90625 
Q 73.296875 46.4375 73.296875 35.6875 
Q 73.296875 24.8125 68.890625 16.21875 
Q 64.5 7.625 56.4375 3.203125 
Q 48.390625 -1.21875 39.0625 -1.21875 
Q 28.953125 -1.21875 20.984375 3.65625 
Q 13.03125 8.546875 8.921875 16.984375 
Q 4.828125 25.4375 4.828125 34.859375 
z
M 14.59375 34.71875 
Q 14.59375 21.78125 21.546875 14.328125 
Q 28.515625 6.890625 39.015625 6.890625 
Q 49.703125 6.890625 56.609375 14.40625 
Q 63.53125 21.921875 63.53125 35.75 
Q 63.53125 44.484375 60.578125 51 
Q 57.625 57.515625 51.921875 61.109375 
Q 46.234375 64.703125 39.15625 64.703125 
Q 29.109375 64.703125 21.84375 57.78125 
Q 14.59375 50.875 14.59375 34.71875 
z
" id="ArialMT-4f"/>
     </defs>
     <g transform="translate(396.995373 577.354781)scale(0.15 -0.15)">
      <use xlink:href="#ArialMT-4f"/>
      <use x="77.783203" xlink:href="#ArialMT-74"/>
      <use x="105.566406" xlink:href="#ArialMT-68"/>
      <use x="161.181641" xlink:href="#ArialMT-65"/>
      <use x="216.796875" xlink:href="#ArialMT-72"/>
     </g>
    </g>
    <g id="patch_28">
     <path d="M 354.995373 598.755562 
L 384.995373 598.755562 
L 384.995373 588.255562 
L 354.995373 588.255562 
z
" style="fill:url(#h30ce8baa5d);stroke:#000000;stroke-linejoin:miter;"/>
    </g>
    <g id="text_11">
     <!-- Cytosolic -->
     <defs>
      <path d="M 58.796875 25.09375 
L 68.265625 22.703125 
Q 65.28125 11.03125 57.546875 4.90625 
Q 49.8125 -1.21875 38.625 -1.21875 
Q 27.046875 -1.21875 19.796875 3.484375 
Q 12.546875 8.203125 8.765625 17.140625 
Q 4.984375 26.078125 4.984375 36.328125 
Q 4.984375 47.515625 9.25 55.828125 
Q 13.53125 64.15625 21.40625 68.46875 
Q 29.296875 72.796875 38.765625 72.796875 
Q 49.515625 72.796875 56.828125 67.328125 
Q 64.15625 61.859375 67.046875 51.953125 
L 57.71875 49.75 
Q 55.21875 57.5625 50.484375 61.125 
Q 45.75 64.703125 38.578125 64.703125 
Q 30.328125 64.703125 24.78125 60.734375 
Q 19.234375 56.78125 16.984375 50.109375 
Q 14.75 43.453125 14.75 36.375 
Q 14.75 27.25 17.40625 20.4375 
Q 20.0625 13.625 25.671875 10.25 
Q 31.296875 6.890625 37.84375 6.890625 
Q 45.796875 6.890625 51.3125 11.46875 
Q 56.84375 16.0625 58.796875 25.09375 
z
" id="ArialMT-43"/>
     </defs>
     <g transform="translate(396.995373 598.755562)scale(0.15 -0.15)">
      <use xlink:href="#ArialMT-43"/>
      <use x="72.216797" xlink:href="#ArialMT-79"/>
      <use x="122.216797" xlink:href="#ArialMT-74"/>
      <use x="150" xlink:href="#ArialMT-6f"/>
      <use x="205.615234" xlink:href="#ArialMT-73"/>
      <use x="255.615234" xlink:href="#ArialMT-6f"/>
      <use x="311.230469" xlink:href="#ArialMT-6c"/>
      <use x="333.447266" xlink:href="#ArialMT-69"/>
      <use x="355.664062" xlink:href="#ArialMT-63"/>
     </g>
    </g>
   </g>
  </g>
  <g id="axes_2">
   <g id="patch_29">
    <path d="M 743.953846 476.83125 
L 1108.8 476.83125 
L 1108.8 96.31125 
L 743.953846 96.31125 
z
" style="fill:#ffffff;"/>
   </g>
   <g id="patch_30">
    <path clip-path="url(#p0b86071a7a)" d="M 834.244056 476.83125 
L 760.537762 476.83125 
L 760.537762 278.568101 
L 834.244056 278.568101 
z
" style="fill:#bcaaa4;"/>
   </g>
   <g id="patch_31">
    <path clip-path="url(#p0b86071a7a)" d="M 834.244056 278.568101 
L 760.537762 278.568101 
L 760.537762 232.223999 
L 834.244056 232.223999 
z
" style="fill:#9fa8da;"/>
   </g>
   <g id="patch_32">
    <path clip-path="url(#p0b86071a7a)" d="M 834.244056 232.223999 
L 760.537762 232.223999 
L 760.537762 210.924344 
L 834.244056 210.924344 
z
" style="fill:#424242;"/>
   </g>
   <g id="patch_33">
    <path clip-path="url(#p0b86071a7a)" d="M 834.244056 476.83125 
L 907.95035 476.83125 
L 907.95035 232.35754 
L 834.244056 232.35754 
z
" style="fill:#80cbc4;"/>
   </g>
   <g id="patch_34">
    <path clip-path="url(#p0b86071a7a)" d="M 834.244056 232.35754 
L 907.95035 232.35754 
L 907.95035 186.013438 
L 834.244056 186.013438 
z
" style="fill:#9fa8da;"/>
   </g>
   <g id="patch_35">
    <path clip-path="url(#p0b86071a7a)" d="M 834.244056 186.013438 
L 907.95035 186.013438 
L 907.95035 164.713783 
L 834.244056 164.713783 
z
" style="fill:#424242;"/>
   </g>
   <g id="patch_36">
    <path clip-path="url(#p0b86071a7a)" d="M 1018.50979 476.83125 
L 944.803497 476.83125 
L 944.803497 373.895882 
L 1018.50979 373.895882 
z
" style="fill:#ffb74d;"/>
   </g>
   <g id="patch_37">
    <path clip-path="url(#p0b86071a7a)" d="M 1018.50979 373.895882 
L 944.803497 373.895882 
L 944.803497 212.190284 
L 1018.50979 212.190284 
z
" style="fill:#e57373;"/>
   </g>
   <g id="patch_38">
    <path clip-path="url(#p0b86071a7a)" d="M 1018.50979 476.83125 
L 1092.216084 476.83125 
L 1092.216084 379.321517 
L 1018.50979 379.321517 
z
" style="fill:#ffb74d;"/>
   </g>
   <g id="patch_39">
    <path clip-path="url(#p0b86071a7a)" d="M 1018.50979 379.321517 
L 1092.216084 379.321517 
L 1092.216084 165.459031 
L 1018.50979 165.459031 
z
" style="fill:#e57373;"/>
   </g>
   <g id="matplotlib.axis_3">
    <g id="xtick_3">
     <g id="line2d_6">
      <g>
       <use style="stroke:#000000;stroke-width:0.8;" x="834.244056" xlink:href="#m2ae50aa324" y="476.83125"/>
      </g>
     </g>
     <g id="text_12">
      <!-- Produced -->
      <defs>
       <path d="M 7.71875 0 
L 7.71875 71.578125 
L 34.71875 71.578125 
Q 41.84375 71.578125 45.609375 70.90625 
Q 50.875 70.015625 54.4375 67.546875 
Q 58.015625 65.09375 60.1875 60.640625 
Q 62.359375 56.203125 62.359375 50.875 
Q 62.359375 41.75 56.546875 35.421875 
Q 50.734375 29.109375 35.546875 29.109375 
L 17.1875 29.109375 
L 17.1875 0 
z
M 17.1875 37.546875 
L 35.6875 37.546875 
Q 44.875 37.546875 48.734375 40.96875 
Q 52.59375 44.390625 52.59375 50.59375 
Q 52.59375 55.078125 50.3125 58.265625 
Q 48.046875 61.46875 44.34375 62.5 
Q 41.9375 63.140625 35.5 63.140625 
L 17.1875 63.140625 
z
" id="ArialMT-50"/>
      </defs>
      <g transform="translate(770.037025 505.304687)scale(0.3 -0.3)">
       <use xlink:href="#ArialMT-50"/>
       <use x="66.699219" xlink:href="#ArialMT-72"/>
       <use x="100" xlink:href="#ArialMT-6f"/>
       <use x="155.615234" xlink:href="#ArialMT-64"/>
       <use x="211.230469" xlink:href="#ArialMT-75"/>
       <use x="266.845703" xlink:href="#ArialMT-63"/>
       <use x="316.845703" xlink:href="#ArialMT-65"/>
       <use x="372.460938" xlink:href="#ArialMT-64"/>
      </g>
     </g>
    </g>
    <g id="xtick_4">
     <g id="line2d_7">
      <g>
       <use style="stroke:#000000;stroke-width:0.8;" x="1018.50979" xlink:href="#m2ae50aa324" y="476.83125"/>
      </g>
     </g>
     <g id="text_13">
      <!-- Consumed -->
      <g transform="translate(945.975415 505.304687)scale(0.3 -0.3)">
       <use xlink:href="#ArialMT-43"/>
       <use x="72.216797" xlink:href="#ArialMT-6f"/>
       <use x="127.832031" xlink:href="#ArialMT-6e"/>
       <use x="183.447266" xlink:href="#ArialMT-73"/>
       <use x="233.447266" xlink:href="#ArialMT-75"/>
       <use x="289.0625" xlink:href="#ArialMT-6d"/>
       <use x="372.363281" xlink:href="#ArialMT-65"/>
       <use x="427.978516" xlink:href="#ArialMT-64"/>
      </g>
     </g>
    </g>
   </g>
   <g id="matplotlib.axis_4">
    <g id="ytick_4">
     <g id="line2d_8">
      <g>
       <use style="stroke:#000000;stroke-width:0.8;" x="743.953846" xlink:href="#mf94fbb1eee" y="381.70125"/>
      </g>
     </g>
     <g id="text_14">
      <!-- 0.5 -->
      <g transform="translate(695.253846 392.437969)scale(0.3 -0.3)">
       <use xlink:href="#ArialMT-30"/>
       <use x="55.615234" xlink:href="#ArialMT-2e"/>
       <use x="83.398438" xlink:href="#ArialMT-35"/>
      </g>
     </g>
    </g>
    <g id="ytick_5">
     <g id="line2d_9">
      <g>
       <use style="stroke:#000000;stroke-width:0.8;" x="743.953846" xlink:href="#mf94fbb1eee" y="286.57125"/>
      </g>
     </g>
     <g id="text_15">
      <!-- 1.0 -->
      <g transform="translate(695.253846 297.307969)scale(0.3 -0.3)">
       <use xlink:href="#ArialMT-31"/>
       <use x="55.615234" xlink:href="#ArialMT-2e"/>
       <use x="83.398438" xlink:href="#ArialMT-30"/>
      </g>
     </g>
    </g>
    <g id="ytick_6">
     <g id="line2d_10">
      <g>
       <use style="stroke:#000000;stroke-width:0.8;" x="743.953846" xlink:href="#mf94fbb1eee" y="191.44125"/>
      </g>
     </g>
     <g id="text_16">
      <!-- 1.5 -->
      <g transform="translate(695.253846 202.177969)scale(0.3 -0.3)">
       <use xlink:href="#ArialMT-31"/>
       <use x="55.615234" xlink:href="#ArialMT-2e"/>
       <use x="83.398438" xlink:href="#ArialMT-35"/>
      </g>
     </g>
    </g>
    <g id="text_17">
     <!-- ATP produced/consumed in guard  -->
     <defs>
      <path d="M -0.140625 0 
L 27.34375 71.578125 
L 37.546875 71.578125 
L 66.84375 0 
L 56.0625 0 
L 47.703125 21.6875 
L 17.78125 21.6875 
L 9.90625 0 
z
M 20.515625 29.390625 
L 44.78125 29.390625 
L 37.3125 49.21875 
Q 33.890625 58.25 32.234375 64.0625 
Q 30.859375 57.171875 28.375 50.390625 
z
" id="ArialMT-41"/>
      <path d="M 25.921875 0 
L 25.921875 63.140625 
L 2.34375 63.140625 
L 2.34375 71.578125 
L 59.078125 71.578125 
L 59.078125 63.140625 
L 35.40625 63.140625 
L 35.40625 0 
z
" id="ArialMT-54"/>
      <path d="M 0 -1.21875 
L 20.75 72.796875 
L 27.78125 72.796875 
L 7.078125 -1.21875 
z
" id="ArialMT-2f"/>
     </defs>
     <g transform="translate(652.418846 518.34)rotate(-90)scale(0.3 -0.3)">
      <use xlink:href="#ArialMT-41"/>
      <use x="66.589844" xlink:href="#ArialMT-54"/>
      <use x="127.673828" xlink:href="#ArialMT-50"/>
      <use x="194.357422" xlink:href="#ArialMT-20"/>
      <use x="222.140625" xlink:href="#ArialMT-70"/>
      <use x="277.755859" xlink:href="#ArialMT-72"/>
      <use x="311.056641" xlink:href="#ArialMT-6f"/>
      <use x="366.671875" xlink:href="#ArialMT-64"/>
      <use x="422.287109" xlink:href="#ArialMT-75"/>
      <use x="477.902344" xlink:href="#ArialMT-63"/>
      <use x="527.902344" xlink:href="#ArialMT-65"/>
      <use x="583.517578" xlink:href="#ArialMT-64"/>
      <use x="639.132812" xlink:href="#ArialMT-2f"/>
      <use x="666.916016" xlink:href="#ArialMT-63"/>
      <use x="716.916016" xlink:href="#ArialMT-6f"/>
      <use x="772.53125" xlink:href="#ArialMT-6e"/>
      <use x="828.146484" xlink:href="#ArialMT-73"/>
      <use x="878.146484" xlink:href="#ArialMT-75"/>
      <use x="933.761719" xlink:href="#ArialMT-6d"/>
      <use x="1017.0625" xlink:href="#ArialMT-65"/>
      <use x="1072.677734" xlink:href="#ArialMT-64"/>
      <use x="1128.292969" xlink:href="#ArialMT-20"/>
      <use x="1156.076172" xlink:href="#ArialMT-69"/>
      <use x="1178.292969" xlink:href="#ArialMT-6e"/>
      <use x="1233.908203" xlink:href="#ArialMT-20"/>
      <use x="1261.691406" xlink:href="#ArialMT-67"/>
      <use x="1317.306641" xlink:href="#ArialMT-75"/>
      <use x="1372.921875" xlink:href="#ArialMT-61"/>
      <use x="1428.537109" xlink:href="#ArialMT-72"/>
      <use x="1461.837891" xlink:href="#ArialMT-64"/>
      <use x="1517.453125" xlink:href="#ArialMT-20"/>
     </g>
     <!--  cell during opening (moles) -->
     <g transform="translate(684.939784 470.820469)rotate(-90)scale(0.3 -0.3)">
      <use xlink:href="#ArialMT-20"/>
      <use x="27.783203" xlink:href="#ArialMT-63"/>
      <use x="77.783203" xlink:href="#ArialMT-65"/>
      <use x="133.398438" xlink:href="#ArialMT-6c"/>
      <use x="155.615234" xlink:href="#ArialMT-6c"/>
      <use x="177.832031" xlink:href="#ArialMT-20"/>
      <use x="205.615234" xlink:href="#ArialMT-64"/>
      <use x="261.230469" xlink:href="#ArialMT-75"/>
      <use x="316.845703" xlink:href="#ArialMT-72"/>
      <use x="350.146484" xlink:href="#ArialMT-69"/>
      <use x="372.363281" xlink:href="#ArialMT-6e"/>
      <use x="427.978516" xlink:href="#ArialMT-67"/>
      <use x="483.59375" xlink:href="#ArialMT-20"/>
      <use x="511.376953" xlink:href="#ArialMT-6f"/>
      <use x="566.992188" xlink:href="#ArialMT-70"/>
      <use x="622.607422" xlink:href="#ArialMT-65"/>
      <use x="678.222656" xlink:href="#ArialMT-6e"/>
      <use x="733.837891" xlink:href="#ArialMT-69"/>
      <use x="756.054688" xlink:href="#ArialMT-6e"/>
      <use x="811.669922" xlink:href="#ArialMT-67"/>
      <use x="867.285156" xlink:href="#ArialMT-20"/>
      <use x="895.068359" xlink:href="#ArialMT-28"/>
      <use x="928.369141" xlink:href="#ArialMT-6d"/>
      <use x="1011.669922" xlink:href="#ArialMT-6f"/>
      <use x="1067.285156" xlink:href="#ArialMT-6c"/>
      <use x="1089.501953" xlink:href="#ArialMT-65"/>
      <use x="1145.117188" xlink:href="#ArialMT-73"/>
      <use x="1195.117188" xlink:href="#ArialMT-29"/>
     </g>
    </g>
   </g>
   <g id="patch_40">
    <path d="M 743.953846 476.83125 
L 743.953846 96.31125 
" style="fill:none;stroke:#000000;stroke-linecap:square;stroke-linejoin:miter;stroke-width:3;"/>
   </g>
   <g id="patch_41">
    <path d="M 1108.8 476.83125 
L 1108.8 96.31125 
" style="fill:none;stroke:#000000;stroke-linecap:square;stroke-linejoin:miter;stroke-width:3;"/>
   </g>
   <g id="patch_42">
    <path d="M 743.953846 476.83125 
L 1108.8 476.83125 
" style="fill:none;stroke:#000000;stroke-linecap:square;stroke-linejoin:miter;stroke-width:3;"/>
   </g>
   <g id="patch_43">
    <path d="M 743.953846 96.31125 
L 1108.8 96.31125 
" style="fill:none;stroke:#000000;stroke-linecap:square;stroke-linejoin:miter;stroke-width:3;"/>
   </g>
   <g id="text_18">
    <!-- + -->
    <g transform="translate(785.709659 202.974344)scale(0.4 -0.4)">
     <use xlink:href="#ArialMT-2b"/>
    </g>
   </g>
   <g id="text_19">
    <!-- - -->
    <g transform="translate(864.437828 156.763783)scale(0.4 -0.4)">
     <use xlink:href="#ArialMT-2d"/>
    </g>
   </g>
   <g id="text_20">
    <!-- + -->
    <g transform="translate(969.975393 204.240284)scale(0.4 -0.4)">
     <use xlink:href="#ArialMT-2b"/>
    </g>
   </g>
   <g id="text_21">
    <!-- - -->
    <g transform="translate(1048.703562 157.509031)scale(0.4 -0.4)">
     <use xlink:href="#ArialMT-2d"/>
    </g>
   </g>
   <g id="legend_2">
    <g id="patch_44">
     <path d="M 704.226923 630.689156 
L 1148.526923 630.689156 
Q 1151.526923 630.689156 1151.526923 627.689156 
L 1151.526923 563.43525 
Q 1151.526923 560.43525 1148.526923 560.43525 
L 704.226923 560.43525 
Q 701.226923 560.43525 701.226923 563.43525 
L 701.226923 627.689156 
Q 701.226923 630.689156 704.226923 630.689156 
z
" style="fill:#ffffff;opacity:0.8;stroke:#cccccc;stroke-linejoin:miter;"/>
    </g>
    <g id="patch_45">
     <path d="M 707.226923 577.364156 
L 737.226923 577.364156 
L 737.226923 566.864156 
L 707.226923 566.864156 
z
" style="fill:#bcaaa4;"/>
    </g>
    <g id="text_22">
     <!-- Starch degradation -->
     <g transform="translate(749.226923 577.364156)scale(0.15 -0.15)">
      <use xlink:href="#ArialMT-53"/>
      <use x="66.699219" xlink:href="#ArialMT-74"/>
      <use x="94.482422" xlink:href="#ArialMT-61"/>
      <use x="150.097656" xlink:href="#ArialMT-72"/>
      <use x="183.398438" xlink:href="#ArialMT-63"/>
      <use x="233.398438" xlink:href="#ArialMT-68"/>
      <use x="289.013672" xlink:href="#ArialMT-20"/>
      <use x="316.796875" xlink:href="#ArialMT-64"/>
      <use x="372.412109" xlink:href="#ArialMT-65"/>
      <use x="428.027344" xlink:href="#ArialMT-67"/>
      <use x="483.642578" xlink:href="#ArialMT-72"/>
      <use x="516.943359" xlink:href="#ArialMT-61"/>
      <use x="572.558594" xlink:href="#ArialMT-64"/>
      <use x="628.173828" xlink:href="#ArialMT-61"/>
      <use x="683.789062" xlink:href="#ArialMT-74"/>
      <use x="711.572266" xlink:href="#ArialMT-69"/>
      <use x="733.789062" xlink:href="#ArialMT-6f"/>
      <use x="789.404297" xlink:href="#ArialMT-6e"/>
     </g>
    </g>
    <g id="patch_46">
     <path d="M 707.226923 598.757906 
L 737.226923 598.757906 
L 737.226923 588.257906 
L 707.226923 588.257906 
z
" style="fill:#9fa8da;"/>
    </g>
    <g id="text_23">
     <!-- Photosynthesis -->
     <g transform="translate(749.226923 598.757906)scale(0.15 -0.15)">
      <use xlink:href="#ArialMT-50"/>
      <use x="66.699219" xlink:href="#ArialMT-68"/>
      <use x="122.314453" xlink:href="#ArialMT-6f"/>
      <use x="177.929688" xlink:href="#ArialMT-74"/>
      <use x="205.712891" xlink:href="#ArialMT-6f"/>
      <use x="261.328125" xlink:href="#ArialMT-73"/>
      <use x="311.328125" xlink:href="#ArialMT-79"/>
      <use x="361.328125" xlink:href="#ArialMT-6e"/>
      <use x="416.943359" xlink:href="#ArialMT-74"/>
      <use x="444.726562" xlink:href="#ArialMT-68"/>
      <use x="500.341797" xlink:href="#ArialMT-65"/>
      <use x="555.957031" xlink:href="#ArialMT-73"/>
      <use x="605.957031" xlink:href="#ArialMT-69"/>
      <use x="628.173828" xlink:href="#ArialMT-73"/>
     </g>
    </g>
    <g id="patch_47">
     <path d="M 707.226923 620.151656 
L 737.226923 620.151656 
L 737.226923 609.651656 
L 707.226923 609.651656 
z
" style="fill:#80cbc4;"/>
    </g>
    <g id="text_24">
     <!-- Fructose degradation -->
     <defs>
      <path d="M 8.203125 0 
L 8.203125 71.578125 
L 56.5 71.578125 
L 56.5 63.140625 
L 17.671875 63.140625 
L 17.671875 40.96875 
L 51.265625 40.96875 
L 51.265625 32.515625 
L 17.671875 32.515625 
L 17.671875 0 
z
" id="ArialMT-46"/>
     </defs>
     <g transform="translate(749.226923 620.151656)scale(0.15 -0.15)">
      <use xlink:href="#ArialMT-46"/>
      <use x="61.083984" xlink:href="#ArialMT-72"/>
      <use x="94.384766" xlink:href="#ArialMT-75"/>
      <use x="150" xlink:href="#ArialMT-63"/>
      <use x="200" xlink:href="#ArialMT-74"/>
      <use x="227.783203" xlink:href="#ArialMT-6f"/>
      <use x="283.398438" xlink:href="#ArialMT-73"/>
      <use x="333.398438" xlink:href="#ArialMT-65"/>
      <use x="389.013672" xlink:href="#ArialMT-20"/>
      <use x="416.796875" xlink:href="#ArialMT-64"/>
      <use x="472.412109" xlink:href="#ArialMT-65"/>
      <use x="528.027344" xlink:href="#ArialMT-67"/>
      <use x="583.642578" xlink:href="#ArialMT-72"/>
      <use x="616.943359" xlink:href="#ArialMT-61"/>
      <use x="672.558594" xlink:href="#ArialMT-64"/>
      <use x="728.173828" xlink:href="#ArialMT-61"/>
      <use x="783.789062" xlink:href="#ArialMT-74"/>
      <use x="811.572266" xlink:href="#ArialMT-69"/>
      <use x="833.789062" xlink:href="#ArialMT-6f"/>
      <use x="889.404297" xlink:href="#ArialMT-6e"/>
     </g>
    </g>
    <g id="patch_48">
     <path d="M 920.967548 577.364156 
L 950.967548 577.364156 
L 950.967548 566.864156 
L 920.967548 566.864156 
z
" style="fill:#424242;"/>
    </g>
    <g id="text_25">
     <!-- Overnight stores of Mal/Glu -->
     <defs>
      <path d="M 7.421875 0 
L 7.421875 71.578125 
L 21.6875 71.578125 
L 38.625 20.90625 
Q 40.96875 13.8125 42.046875 10.296875 
Q 43.265625 14.203125 45.84375 21.78125 
L 62.984375 71.578125 
L 75.734375 71.578125 
L 75.734375 0 
L 66.609375 0 
L 66.609375 59.90625 
L 45.796875 0 
L 37.25 0 
L 16.546875 60.9375 
L 16.546875 0 
z
" id="ArialMT-4d"/>
     </defs>
     <g transform="translate(962.967548 577.364156)scale(0.15 -0.15)">
      <use xlink:href="#ArialMT-4f"/>
      <use x="77.783203" xlink:href="#ArialMT-76"/>
      <use x="127.783203" xlink:href="#ArialMT-65"/>
      <use x="183.398438" xlink:href="#ArialMT-72"/>
      <use x="216.699219" xlink:href="#ArialMT-6e"/>
      <use x="272.314453" xlink:href="#ArialMT-69"/>
      <use x="294.53125" xlink:href="#ArialMT-67"/>
      <use x="350.146484" xlink:href="#ArialMT-68"/>
      <use x="405.761719" xlink:href="#ArialMT-74"/>
      <use x="433.544922" xlink:href="#ArialMT-20"/>
      <use x="461.328125" xlink:href="#ArialMT-73"/>
      <use x="511.328125" xlink:href="#ArialMT-74"/>
      <use x="539.111328" xlink:href="#ArialMT-6f"/>
      <use x="594.726562" xlink:href="#ArialMT-72"/>
      <use x="628.027344" xlink:href="#ArialMT-65"/>
      <use x="683.642578" xlink:href="#ArialMT-73"/>
      <use x="733.642578" xlink:href="#ArialMT-20"/>
      <use x="761.425781" xlink:href="#ArialMT-6f"/>
      <use x="817.041016" xlink:href="#ArialMT-66"/>
      <use x="844.824219" xlink:href="#ArialMT-20"/>
      <use x="872.607422" xlink:href="#ArialMT-4d"/>
      <use x="955.908203" xlink:href="#ArialMT-61"/>
      <use x="1011.523438" xlink:href="#ArialMT-6c"/>
      <use x="1033.740234" xlink:href="#ArialMT-2f"/>
      <use x="1061.523438" xlink:href="#ArialMT-47"/>
      <use x="1139.306641" xlink:href="#ArialMT-6c"/>
      <use x="1161.523438" xlink:href="#ArialMT-75"/>
     </g>
    </g>
    <g id="patch_49">
     <path d="M 920.967548 598.757906 
L 950.967548 598.757906 
L 950.967548 588.257906 
L 920.967548 588.257906 
z
" style="fill:#e57373;"/>
    </g>
    <g id="text_26">
     <!-- Plasma memb. H$^{+}$ trans. -->
     <defs>
      <path d="M 14.703125 0 
L 6.546875 0 
L 6.546875 71.578125 
L 15.328125 71.578125 
L 15.328125 46.046875 
Q 20.90625 53.03125 29.546875 53.03125 
Q 34.328125 53.03125 38.59375 51.09375 
Q 42.875 49.171875 45.625 45.671875 
Q 48.390625 42.1875 49.953125 37.25 
Q 51.515625 32.328125 51.515625 26.703125 
Q 51.515625 13.375 44.921875 6.09375 
Q 38.328125 -1.171875 29.109375 -1.171875 
Q 19.921875 -1.171875 14.703125 6.5 
z
M 14.59375 26.3125 
Q 14.59375 17 17.140625 12.84375 
Q 21.296875 6.0625 28.375 6.0625 
Q 34.125 6.0625 38.328125 11.0625 
Q 42.53125 16.0625 42.53125 25.984375 
Q 42.53125 36.140625 38.5 40.96875 
Q 34.46875 45.796875 28.765625 45.796875 
Q 23 45.796875 18.796875 40.796875 
Q 14.59375 35.796875 14.59375 26.3125 
z
" id="ArialMT-62"/>
      <path d="M 8.015625 0 
L 8.015625 71.578125 
L 17.484375 71.578125 
L 17.484375 42.1875 
L 54.6875 42.1875 
L 54.6875 71.578125 
L 64.15625 71.578125 
L 64.15625 0 
L 54.6875 0 
L 54.6875 33.734375 
L 17.484375 33.734375 
L 17.484375 0 
z
" id="ArialMT-48"/>
      <path d="M 46 62.703125 
L 46 35.5 
L 73.1875 35.5 
L 73.1875 27.203125 
L 46 27.203125 
L 46 0 
L 37.796875 0 
L 37.796875 27.203125 
L 10.59375 27.203125 
L 10.59375 35.5 
L 37.796875 35.5 
L 37.796875 62.703125 
z
" id="DejaVuSans-2b"/>
     </defs>
     <g transform="translate(962.967548 598.757906)scale(0.15 -0.15)">
      <use transform="translate(0 0.826562)" xlink:href="#ArialMT-50"/>
      <use transform="translate(66.699219 0.826562)" xlink:href="#ArialMT-6c"/>
      <use transform="translate(88.916016 0.826562)" xlink:href="#ArialMT-61"/>
      <use transform="translate(144.53125 0.826562)" xlink:href="#ArialMT-73"/>
      <use transform="translate(194.53125 0.826562)" xlink:href="#ArialMT-6d"/>
      <use transform="translate(277.832031 0.826562)" xlink:href="#ArialMT-61"/>
      <use transform="translate(333.447266 0.826562)" xlink:href="#ArialMT-20"/>
      <use transform="translate(361.230469 0.826562)" xlink:href="#ArialMT-6d"/>
      <use transform="translate(444.53125 0.826562)" xlink:href="#ArialMT-65"/>
      <use transform="translate(500.146484 0.826562)" xlink:href="#ArialMT-6d"/>
      <use transform="translate(583.447266 0.826562)" xlink:href="#ArialMT-62"/>
      <use transform="translate(639.0625 0.826562)" xlink:href="#ArialMT-2e"/>
      <use transform="translate(666.845703 0.826562)" xlink:href="#ArialMT-20"/>
      <use transform="translate(694.628906 0.826562)" xlink:href="#ArialMT-48"/>
      <use transform="translate(767.802734 39.107812)scale(0.7)" xlink:href="#DejaVuSans-2b"/>
      <use transform="translate(829.189453 0.826562)" xlink:href="#ArialMT-20"/>
      <use transform="translate(856.972656 0.826562)" xlink:href="#ArialMT-74"/>
      <use transform="translate(884.755859 0.826562)" xlink:href="#ArialMT-72"/>
      <use transform="translate(918.056641 0.826562)" xlink:href="#ArialMT-61"/>
      <use transform="translate(973.671875 0.826562)" xlink:href="#ArialMT-6e"/>
      <use transform="translate(1029.287109 0.826562)" xlink:href="#ArialMT-73"/>
      <use transform="translate(1079.287109 0.826562)" xlink:href="#ArialMT-2e"/>
     </g>
    </g>
    <g id="patch_50">
     <path d="M 920.967548 621.689156 
L 950.967548 621.689156 
L 950.967548 611.189156 
L 920.967548 611.189156 
z
" style="fill:#ffb74d;"/>
    </g>
    <g id="text_27">
     <!-- Tonoplast memb. H$^{+}$ trans. -->
     <g transform="translate(962.967548 621.689156)scale(0.15 -0.15)">
      <use transform="translate(0 0.826562)" xlink:href="#ArialMT-54"/>
      <use transform="translate(61.083984 0.826562)" xlink:href="#ArialMT-6f"/>
      <use transform="translate(116.699219 0.826562)" xlink:href="#ArialMT-6e"/>
      <use transform="translate(172.314453 0.826562)" xlink:href="#ArialMT-6f"/>
      <use transform="translate(227.929688 0.826562)" xlink:href="#ArialMT-70"/>
      <use transform="translate(283.544922 0.826562)" xlink:href="#ArialMT-6c"/>
      <use transform="translate(305.761719 0.826562)" xlink:href="#ArialMT-61"/>
      <use transform="translate(361.376953 0.826562)" xlink:href="#ArialMT-73"/>
      <use transform="translate(411.376953 0.826562)" xlink:href="#ArialMT-74"/>
      <use transform="translate(439.160156 0.826562)" xlink:href="#ArialMT-20"/>
      <use transform="translate(466.943359 0.826562)" xlink:href="#ArialMT-6d"/>
      <use transform="translate(550.244141 0.826562)" xlink:href="#ArialMT-65"/>
      <use transform="translate(605.859375 0.826562)" xlink:href="#ArialMT-6d"/>
      <use transform="translate(689.160156 0.826562)" xlink:href="#ArialMT-62"/>
      <use transform="translate(744.775391 0.826562)" xlink:href="#ArialMT-2e"/>
      <use transform="translate(772.558594 0.826562)" xlink:href="#ArialMT-20"/>
      <use transform="translate(800.341797 0.826562)" xlink:href="#ArialMT-48"/>
      <use transform="translate(873.515625 39.107812)scale(0.7)" xlink:href="#DejaVuSans-2b"/>
      <use transform="translate(934.902344 0.826562)" xlink:href="#ArialMT-20"/>
      <use transform="translate(962.685547 0.826562)" xlink:href="#ArialMT-74"/>
      <use transform="translate(990.46875 0.826562)" xlink:href="#ArialMT-72"/>
      <use transform="translate(1023.769531 0.826562)" xlink:href="#ArialMT-61"/>
      <use transform="translate(1079.384766 0.826562)" xlink:href="#ArialMT-6e"/>
      <use transform="translate(1135 0.826562)" xlink:href="#ArialMT-73"/>
      <use transform="translate(1185 0.826562)" xlink:href="#ArialMT-2e"/>
     </g>
    </g>
   </g>
  </g>
  <g id="text_28">
   <!-- A -->
   <defs>
    <path d="M 71.828125 0 
L 56.109375 0 
L 49.859375 16.265625 
L 21.234375 16.265625 
L 15.328125 0 
L 0 0 
L 27.875 71.578125 
L 43.171875 71.578125 
z
M 45.21875 28.328125 
L 35.359375 54.890625 
L 25.6875 28.328125 
z
" id="Arial-BoldMT-41"/>
   </defs>
   <g transform="translate(7.2 35.83125)scale(0.4 -0.4)">
    <use xlink:href="#Arial-BoldMT-41"/>
   </g>
  </g>
  <g id="text_29">
   <!-- B -->
   <defs>
    <path d="M 7.328125 71.578125 
L 35.9375 71.578125 
Q 44.4375 71.578125 48.609375 70.875 
Q 52.78125 70.171875 56.078125 67.921875 
Q 59.375 65.671875 61.5625 61.9375 
Q 63.765625 58.203125 63.765625 53.5625 
Q 63.765625 48.53125 61.046875 44.328125 
Q 58.34375 40.140625 53.71875 38.03125 
Q 60.25 36.140625 63.765625 31.546875 
Q 67.28125 26.953125 67.28125 20.75 
Q 67.28125 15.875 65.015625 11.25 
Q 62.75 6.640625 58.8125 3.875 
Q 54.890625 1.125 49.125 0.484375 
Q 45.515625 0.09375 31.6875 0 
L 7.328125 0 
z
M 21.78125 59.671875 
L 21.78125 43.109375 
L 31.25 43.109375 
Q 39.703125 43.109375 41.75 43.359375 
Q 45.453125 43.796875 47.578125 45.921875 
Q 49.703125 48.046875 49.703125 51.515625 
Q 49.703125 54.828125 47.875 56.90625 
Q 46.046875 58.984375 42.4375 59.421875 
Q 40.28125 59.671875 30.078125 59.671875 
z
M 21.78125 31.203125 
L 21.78125 12.0625 
L 35.15625 12.0625 
Q 42.96875 12.0625 45.0625 12.5 
Q 48.296875 13.09375 50.3125 15.359375 
Q 52.34375 17.625 52.34375 21.4375 
Q 52.34375 24.65625 50.78125 26.90625 
Q 49.21875 29.15625 46.265625 30.171875 
Q 43.3125 31.203125 33.453125 31.203125 
z
" id="Arial-BoldMT-42"/>
   </defs>
   <g transform="translate(606.96 35.83125)scale(0.4 -0.4)">
    <use xlink:href="#Arial-BoldMT-42"/>
   </g>
  </g>
 </g>
 <defs>
  <clipPath id="pd5f248d377">
   <rect height="380.52" width="364.846154" x="160.2" y="96.31125"/>
  </clipPath>
  <clipPath id="p0b86071a7a">
   <rect height="380.52" width="364.846154" x="743.953846" y="96.31125"/>
  </clipPath>
 </defs>
 <defs>
  <pattern height="72" id="h3adaf0db31" patternUnits="userSpaceOnUse" width="72" x="0" y="0">
   <rect fill="#c5e1a5" height="73" width="73" x="0" y="0"/>
   <path d="M -36 36 
L 36 -36 
M -30 42 
L 42 -30 
M -24 48 
L 48 -24 
M -18 54 
L 54 -18 
M -12 60 
L 60 -12 
M -6 66 
L 66 -6 
M 0 72 
L 72 0 
M 6 78 
L 78 6 
M 12 84 
L 84 12 
M 18 90 
L 90 18 
M 24 96 
L 96 24 
M 30 102 
L 102 30 
M 36 108 
L 108 36 
" style="fill:#000000;stroke:#000000;stroke-linecap:butt;stroke-linejoin:miter;stroke-width:1.0;"/>
  </pattern>
  <pattern height="72" id="hbb0aafb2f7" patternUnits="userSpaceOnUse" width="72" x="0" y="0">
   <rect fill="#90caf9" height="73" width="73" x="0" y="0"/>
   <path d="M -36 36 
L 36 -36 
M -30 42 
L 42 -30 
M -24 48 
L 48 -24 
M -18 54 
L 54 -18 
M -12 60 
L 60 -12 
M -6 66 
L 66 -6 
M 0 72 
L 72 0 
M 6 78 
L 78 6 
M 12 84 
L 84 12 
M 18 90 
L 90 18 
M 24 96 
L 96 24 
M 30 102 
L 102 30 
M 36 108 
L 108 36 
" style="fill:#000000;stroke:#000000;stroke-linecap:butt;stroke-linejoin:miter;stroke-width:1.0;"/>
  </pattern>
  <pattern height="72" id="h928402f0d9" patternUnits="userSpaceOnUse" width="72" x="0" y="0">
   <rect fill="#bcaaa4" height="73" width="73" x="0" y="0"/>
   <path d="M -36 36 
L 36 -36 
M -30 42 
L 42 -30 
M -24 48 
L 48 -24 
M -18 54 
L 54 -18 
M -12 60 
L 60 -12 
M -6 66 
L 66 -6 
M 0 72 
L 72 0 
M 6 78 
L 78 6 
M 12 84 
L 84 12 
M 18 90 
L 90 18 
M 24 96 
L 96 24 
M 30 102 
L 102 30 
M 36 108 
L 108 36 
" style="fill:#000000;stroke:#000000;stroke-linecap:butt;stroke-linejoin:miter;stroke-width:1.0;"/>
  </pattern>
  <pattern height="72" id="h767520488a" patternUnits="userSpaceOnUse" width="72" x="0" y="0">
   <rect fill="#bdbdbd" height="73" width="73" x="0" y="0"/>
   <path d="M -36 36 
L 36 -36 
M -30 42 
L 42 -30 
M -24 48 
L 48 -24 
M -18 54 
L 54 -18 
M -12 60 
L 60 -12 
M -6 66 
L 66 -6 
M 0 72 
L 72 0 
M 6 78 
L 78 6 
M 12 84 
L 84 12 
M 18 90 
L 90 18 
M 24 96 
L 96 24 
M 30 102 
L 102 30 
M 36 108 
L 108 36 
" style="fill:#000000;stroke:#000000;stroke-linecap:butt;stroke-linejoin:miter;stroke-width:1.0;"/>
  </pattern>
  <pattern height="72" id="h30ce8baa5d" patternUnits="userSpaceOnUse" width="72" x="0" y="0">
   <rect fill="#ffffff" height="73" width="73" x="0" y="0"/>
   <path d="M -36 36 
L 36 -36 
M -30 42 
L 42 -30 
M -24 48 
L 48 -24 
M -18 54 
L 54 -18 
M -12 60 
L 60 -12 
M -6 66 
L 66 -6 
M 0 72 
L 72 0 
M 6 78 
L 78 6 
M 12 84 
L 84 12 
M 18 90 
L 90 18 
M 24 96 
L 96 24 
M 30 102 
L 102 30 
M 36 108 
L 108 36 
" style="fill:#000000;stroke:#000000;stroke-linecap:butt;stroke-linejoin:miter;stroke-width:1.0;"/>
  </pattern>
 </defs>
</svg>
